<?xml version="1.0" encoding="utf-8"?>
<!-- Generator: Adobe Illustrator 22.0.0, SVG Export Plug-In . SVG Version: 6.00 Build 0)  -->
<svg version="1.1" id="Layer_1" xmlns="http://www.w3.org/2000/svg" xmlns:xlink="http://www.w3.org/1999/xlink" x="0px" y="0px"
	 viewBox="0 0 300 88" style="enable-background:new 0 0 300 88;" xml:space="preserve">
<style type="text/css">
	.st0{fill:#003149;}
	.st1{fill:url(#SVGID_1_);}
	.st2{fill:#ED1C24;}
	.st3{fill:url(#SVGID_2_);}
</style>
<g>
	<g>
		<path class="st0" d="M32.9,51.6H14.7L11.2,60H1.9l17.5-39.2h9L45.9,60h-9.5L32.9,51.6z M30.1,44.7l-6.2-15l-6.2,15H30.1z"/>
		<path class="st0" d="M49.4,18.4h8.7V60h-8.7V18.4z"/>
		<path class="st0" d="M99.1,44.9c0,9.5-6.6,15.5-15,15.5c-3.8,0-6.8-1.2-9.1-3.6v14.1h-8.7v-41h8.4v3.5c2.2-2.6,5.4-3.9,9.5-3.9
			C92.6,29.4,99.1,35.4,99.1,44.9z M90.3,44.9c0-5.2-3.3-8.4-7.7-8.4c-4.4,0-7.7,3.1-7.7,8.4c0,5.2,3.3,8.4,7.7,8.4
			C86.9,53.3,90.3,50.1,90.3,44.9z"/>
		<path class="st0" d="M135.8,42.7V60H127V44.1c0-4.9-2.2-7.1-6.1-7.1c-4.2,0-7.2,2.6-7.2,8.1V60h-8.7V18.4h8.7V33
			c2.4-2.4,5.7-3.6,9.6-3.6C130.4,29.4,135.8,33.5,135.8,42.7z"/>
		<path class="st0" d="M225.7,29.8l-13.6,32c-2.9,7.3-7.1,9.5-12.5,9.5c-3.1,0-6.4-1-8.4-2.7l3.2-6.2c1.3,1.2,3.2,1.9,4.9,1.9
			c2.4,0,3.8-1.1,4.9-3.8l0.1-0.3l-13.1-30.4h9l8.5,20.5l8.5-20.5H225.7z"/>
		<path class="st0" d="M248,29.4v8.1c-0.7-0.1-1.3-0.1-2-0.1c-4.8,0-8,2.6-8,8.4V60h-8.7V29.8h8.4v4C239.7,30.9,243.3,29.4,248,29.4
			z"/>
		<path class="st0" d="M252.1,20.8c0-2.7,2.2-4.9,5.4-4.9c3.3,0,5.4,2,5.4,4.7c0,2.9-2.2,5-5.4,5C254.3,25.6,252.1,23.5,252.1,20.8z
			 M253.2,29.8h8.7V60h-8.7V29.8z"/>
		<path class="st0" d="M289.2,60l-6.6-9.2l-6.8,9.2h-9.5l11.6-15.2l-11.2-15h9.8l6.4,8.8l6.6-8.8h9.3l-11.2,14.7L299.1,60H289.2z"/>
	</g>
	<g>
		<linearGradient id="SVGID_1_" gradientUnits="userSpaceOnUse" x1="161.741" y1="46.0583" x2="190.2543" y2="46.0583">
			<stop  offset="0" style="stop-color:#B11116"/>
			<stop  offset="0.4648" style="stop-color:#ED1C24"/>
		</linearGradient>
		<path class="st1" d="M161.7,46.1c0-9.3,6.6-15.9,15.8-15.9c6,0,10.6,2.8,12.7,7.9l-6.4,3.7c-1.5-2.9-3.8-4.3-6.4-4.3
			c-4.2,0-7.4,3.2-7.4,8.6c0,5.4,3.3,8.6,7.4,8.6c2.6,0,4.8-1.3,6.4-4.3l6.4,3.8c-2.1,4.9-6.7,7.8-12.7,7.8
			C168.3,62,161.7,55.4,161.7,46.1z"/>
		<path class="st2" d="M170.1,46.1c0-0.6,0-1.2-0.1-1.8v3.6C170,47.3,170.1,46.7,170.1,46.1z"/>
		<g>
			<linearGradient id="SVGID_2_" gradientUnits="userSpaceOnUse" x1="140.6951" y1="52.2511" x2="161.5342" y2="52.2511">
				<stop  offset="0.8029" style="stop-color:#ED1C24"/>
				<stop  offset="1" style="stop-color:#B11116"/>
			</linearGradient>
			<path class="st3" d="M140.8,54.2l6.5-3.8c0.6,1.2,1.3,2,2.1,2.7c-0.1-0.3-0.1-0.6-0.1-0.9c0-2.1,1.3-3.6,5.5-3.6h6.1l0.2,0
				c0,0,0.3-1.3,0.3-2.5c0-1.3-0.2-2.5-0.6-3.5c0,0.3,0.1,0.5,0.1,0.8h-7.1c-9.4,0-13.2,3.8-13.2,9.2c0,5.3,4.3,9.4,11.5,9.4
				c0.2,0,0.4,0,0.7,0C147.2,61.6,142.8,58.8,140.8,54.2z"/>
			<path class="st2" d="M153.9,30.1c-1.9,0-3.7,0.3-5.3,0.8c1.9-0.5,3.8-0.7,5.8-0.8C154.2,30.2,154,30.1,153.9,30.1z"/>
			<path class="st2" d="M153.9,37.3c-3.3,0-6.6,1.1-8.9,2.9l-2.5-5c-0.7,0.9-1.2,1.8-1.7,2.9l6.5,3.7c1.6-2.9,3.9-4.3,6.5-4.3
				c3.2,0,5.9,1.8,7.1,5C160.7,39.2,158.4,37.3,153.9,37.3z"/>
			<path class="st2" d="M154.4,30.2c-2,0.1-4,0.3-5.8,0.8c-2.5,0.8-4.6,2.2-6.1,4.2l2.5,5c2.2-1.8,5.6-2.9,8.9-2.9
				c4.5,0,6.7,1.9,7,5.3c0.4,1,0.6,2.2,0.6,3.5c0,1.2-0.2,2.3-0.5,3.3c-1.1,3.4-3.8,5.9-7.1,5.9c-1.6,0-3.2-0.4-4.1-1.5
				c-0.5-0.6-0.4-1.3-0.6-2c-0.2-0.8-0.9-1.3-1.2-1.9l-7.1,4.3c2,4.7,6.4,7.5,12,7.8c0.3,0,0.6,0,1,0c2.9,0,5.5-0.6,7.7-1.7
				c4.7-2.3,7.8-6.7,8.4-12.4v-3.6C169.2,36.1,163,30.4,154.4,30.2z"/>
		</g>
	</g>
</g>
</svg>
